<svg version="1.1" xmlns="http://www.w3.org/2000/svg" width="51.551" height="50" viewBox="0 0 51.551 50"><path d="m24.925 -0.018 0.181 0c3.958 0.005 7.851 0.941 11.364 2.77 0.129 0.067 0.259 0.133 0.389 0.199C37.989 3.533 39.047 4.235 40.056 5.007l0.129 0.098c0.508 0.388 0.994 0.789 1.463 1.225a12.694 12.694 0 0 0 0.436 0.383c0.29 0.252 0.561 0.522 0.833 0.793l0.134 0.133c0.309 0.31 0.6 0.632 0.884 0.965l0.115 0.134C45.047 9.904 45.917 11.154 46.685 12.482l0.103 0.178c2.143 3.735 3.25 8.002 3.234 12.304l0 0.208c-0.022 6.925 -2.934 13.154 -7.784 18.004 -0.349 0.345 -0.701 0.672 -1.088 0.973 -0.192 0.15 -0.375 0.308 -0.56 0.468 -3.277 2.727 -7.385 4.395 -11.557 5.117l-0.186 0.032c-1.267 0.205 -2.535 0.259 -3.816 0.254l-0.229 0c-1.18 -0.004 -2.337 -0.04 -3.504 -0.233l-0.264 -0.044C16.626 48.994 12.449 47.19 9.027 44.287l-0.207 -0.167c-0.582 -0.477 -1.116 -0.999 -1.649 -1.529l-0.109 -0.108C6.578 42.003 6.136 41.506 5.712 40.973a43.653 43.653 0 0 0 -0.228 -0.271C3.882 38.794 2.592 36.524 1.693 34.203l-0.07 -0.18C0.809 31.923 0.301 29.742 0.071 27.503l-0.02 -0.198C-0.25 23.974 0.129 20.606 1.128 17.419l0.063 -0.202C2.061 14.485 3.434 11.905 5.219 9.661l0.157 -0.197c0.31 -0.384 0.632 -0.756 0.965 -1.12a16.29 16.29 0 0 0 0.368 -0.423C7.285 7.258 7.925 6.622 8.604 6.065l0.112 -0.094C13.289 2.15 18.95 -0.013 24.925 -0.018" fill="#E8B52B"/><path d="m25.031 4.632 0.202 -0.001c1.237 -0.002 2.456 0.072 3.668 0.331l0.227 0.047c0.57 0.12 1.133 0.251 1.691 0.42l0.162 0.049C33.508 6.255 35.828 7.487 37.87 9.168c-0.317 0.38 -0.653 0.733 -1.004 1.082l-0.164 0.164q-0.257 0.257 -0.515 0.513l-0.351 0.35A958.877 958.877 0 0 1 34.979 12.13c-0.223 -0.083 -0.414 -0.172 -0.608 -0.31l-0.145 -0.101 -0.156 -0.109C32.909 10.819 31.648 10.201 30.324 9.732l-0.184 -0.066C27.599 8.775 24.578 8.524 21.932 9.097l-0.201 0.042C18.888 9.756 16.35 11.052 14.175 12.976l-0.114 0.101c-0.439 0.389 -0.853 0.785 -1.226 1.239l-0.201 0.236C11.101 16.368 9.96 18.495 9.379 20.804l-0.072 0.261c-0.34 1.256 -0.461 2.5 -0.453 3.798l0.001 0.204c0.004 1.115 0.081 2.189 0.312 3.283l0.033 0.163c0.068 0.326 0.152 0.646 0.249 0.965l0.05 0.168C10.723 33.655 13.402 37.079 17.066 39.139c1.89 1.003 3.759 1.556 5.853 1.975V31.805c0.7 0.078 0.7 0.078 0.95 0.144 0.333 0.078 0.653 0.092 0.994 0.09l0.184 0c0.578 -0.009 1.118 -0.104 1.68 -0.233l0.353 -0.071 0.071 9.309c4.09 -0.744 7.827 -2.523 10.437 -5.853l0.169 -0.208C39.62 32.643 40.506 29.97 41.114 27.08H31.735l0.212 -1.058c0.154 -1.081 0.055 -2.048 -0.212 -3.103q2.599 -0.007 5.199 -0.011c0.805 -0.001 1.609 -0.003 2.414 -0.005q1.052 -0.003 2.103 -0.004c0.371 0 0.743 -0.001 1.114 -0.002q0.524 -0.002 1.048 -0.002 0.193 0 0.385 -0.001c0.175 -0.001 0.35 -0.001 0.525 0l0.155 -0.002c0.219 0.002 0.366 0.016 0.558 0.125 0.145 0.15 0.144 0.232 0.144 0.439l0.001 0.2 -0.003 0.217 0 0.226a57.616 57.616 0 0 1 -0.003 0.476c-0.003 0.238 -0.003 0.476 -0.003 0.714 -0.004 1.25 -0.082 2.476 -0.33 3.703l-0.047 0.236c-0.485 2.381 -1.432 4.712 -2.761 6.751l-0.1 0.153c-0.733 1.112 -1.573 2.13 -2.479 3.104l-0.129 0.14C39.226 39.695 38.908 39.983 38.575 40.268q-0.113 0.1 -0.226 0.201c-0.915 0.807 -1.898 1.517 -2.958 2.122a32.933 32.933 0 0 0 -0.398 0.232c-1.168 0.683 -2.399 1.185 -3.682 1.605l-0.24 0.081c-1.325 0.429 -2.683 0.655 -4.062 0.836 -0.05 0.007 -0.101 0.015 -0.152 0.023 -4.885 0.659 -10.146 -1.042 -14.037 -3.96 -1.023 -0.782 -2.082 -1.636 -2.906 -2.629 -0.13 -0.156 -0.269 -0.302 -0.407 -0.451C6.55 35.044 4.661 30.407 4.64 25.985l-0.001 -0.209c-0.001 -0.222 -0.002 -0.444 -0.002 -0.666l0 -0.23C4.641 20.221 6.157 15.723 9.168 12.13l0.173 -0.212C10.188 10.89 11.136 9.901 12.2 9.097a121.931 121.931 0 0 0 0.266 -0.211c3.615 -2.854 7.991 -4.245 12.565 -4.254" fill="#FEFEFE"/><path d="M27.979 20.896c0.258 0.212 0.492 0.442 0.723 0.683l0.147 0.15c0.939 1.013 1.255 2.293 1.215 3.65 -0.076 1.327 -0.734 2.512 -1.68 3.423 -1.149 1.001 -2.517 1.353 -4.009 1.258 -0.465 -0.049 -0.883 -0.193 -1.313 -0.372l-0.225 -0.09c-1.326 -0.595 -2.158 -1.724 -2.666 -3.056 -0.402 -1.148 -0.319 -2.466 0.191 -3.558 0.238 -0.488 0.499 -0.932 0.866 -1.335l0.145 -0.162c1.702 -1.805 4.609 -2.089 6.608 -0.592" fill="#FEFEFE"/><path d="m8.674 5.994 0.141 0.071 -2.539 2.539 -0.141 -0.071c1.641 -1.768 1.641 -1.768 2.468 -2.468z" fill="#EFCC6E"/></svg>